<mxfile host="www.draw.io" modified="2020-05-15T07:13:59.925Z" agent="5.0 (X11; Linux x86_64) AppleWebKit/537.36 (KHTML, like Gecko) Chrome/81.0.4044.129 Safari/537.36" etag="LPX3PrUxaYX2YrcNbqua" version="13.0.9" type="github">
  <diagram id="6a731a19-8d31-9384-78a2-239565b7b9f0" name="Page-1">
    <mxGraphModel dx="504" dy="920" grid="1" gridSize="10" guides="1" tooltips="1" connect="1" arrows="1" fold="1" page="1" pageScale="1" pageWidth="1169" pageHeight="827" background="#ffffff" math="0" shadow="0">
      <root>
        <mxCell id="0" />
        <mxCell id="1" parent="0" />
        <mxCell id="0ZZ3MTBLyb2L7DkTGc49-1546" value="" style="edgeStyle=orthogonalEdgeStyle;rounded=0;orthogonalLoop=1;jettySize=auto;html=1;" edge="1" parent="1" source="0ZZ3MTBLyb2L7DkTGc49-1544" target="0ZZ3MTBLyb2L7DkTGc49-1545">
          <mxGeometry relative="1" as="geometry" />
        </mxCell>
        <mxCell id="0ZZ3MTBLyb2L7DkTGc49-1544" value="Protein" style="rounded=0;whiteSpace=wrap;html=1;" vertex="1" parent="1">
          <mxGeometry x="1350" y="180" width="120" height="60" as="geometry" />
        </mxCell>
        <mxCell id="0ZZ3MTBLyb2L7DkTGc49-1548" value="" style="edgeStyle=orthogonalEdgeStyle;rounded=0;orthogonalLoop=1;jettySize=auto;html=1;" edge="1" parent="1" source="0ZZ3MTBLyb2L7DkTGc49-1545" target="0ZZ3MTBLyb2L7DkTGc49-1547">
          <mxGeometry relative="1" as="geometry" />
        </mxCell>
        <mxCell id="0ZZ3MTBLyb2L7DkTGc49-1545" value="Protein" style="rounded=0;whiteSpace=wrap;html=1;" vertex="1" parent="1">
          <mxGeometry x="1550" y="180" width="120" height="60" as="geometry" />
        </mxCell>
        <mxCell id="0ZZ3MTBLyb2L7DkTGc49-1547" value="Protein" style="rounded=0;whiteSpace=wrap;html=1;" vertex="1" parent="1">
          <mxGeometry x="1750" y="180" width="120" height="60" as="geometry" />
        </mxCell>
      </root>
    </mxGraphModel>
  </diagram>
</mxfile>
